<?xml version="1.0" encoding="UTF-8" standalone="no"?>
<svg xmlns="http://www.w3.org/2000/svg" xmlns:xlink="http://www.w3.org/1999/xlink" width="40px" height="40px" viewBox="0 0 40 40" version="1.1"><title>Giggling In Love</title><desc>Your unique vanillicon is crafted with love by the team at vanillaforums.com.</desc><defs/><g id="vanillicon" stroke="none" stroke-width="1" fill="none" fill-rule="evenodd"><rect id="background" fill="#7FE3CE" x="-2" y="-2" width="44" height="44"/><g id="avatar" transform="rotate(4, 20, 20) translate(3.000000, 3.000000)"><circle id="body" fill="#FF6EAC" cx="17" cy="17" r="15"/><g id="eyes" transform="translate(7.000000, 9.000000)" fill="#2E0B0B"><path d="M4.50437136,8.00665368 C11.6470584,4.00352099 8.73529401,0.000388108144 6.35294106,0.000388108144 C5.02941201,0.000388108144 4.5043714,1.19281161 4.5043714,1.19281161 C4.5043714,1.19281161 3.97058823,0.000388108144 2.64705871,0.000388108144 C0.264705886,0.000388108144 -2.64705871,4.00352099 4.50437136,8.00665368 Z" id="heart"/><path d="M15.5043714,8.00665368 C22.6470584,4.00352099 19.735294,0.000388108144 17.3529411,0.000388108144 C16.029412,0.000388108144 15.5043714,1.19281161 15.5043714,1.19281161 C15.5043714,1.19281161 14.9705882,0.000388108144 13.6470587,0.000388108144 C11.2647059,0.000388108144 8.35294129,4.00352099 15.5043714,8.00665368 Z" id="heart-2" transform="translate(15.500000, 4.000000) scale(-1, 1) translate(-15.500000, -4.000000) "/></g><g id="mouth" transform="translate(10.000000, 20.000000)" fill="#2E0B0B"><path d="M7,8 C10.8659932,8 14,4.57000003 14,1.64535579 C14,-1.27928845 12,0.586248443 7,0.58624842 C2,0.586248396 0,-1.27928845 0,1.64535579 C0,4.57000003 3.13400675,8 7,8 Z" id="mouth"/></g><path d="M32.3713221,5.83208021 C31.5907464,4.75770985 30.1717978,4.42393437 29.0120926,4.98749492 C29.5705149,3.83219 29.2393501,2.40711733 28.167919,1.62867711 C27.0935487,0.84810135 25.6409061,0.969141217 24.7121107,1.86348779 C24.886193,0.592165536 24.1308649,-0.660823563 22.8713221,-1.07007381 C21.608324,-1.48044677 20.2641823,-0.916439785 19.6572136,0.221147928 C19.4299155,-1.04174577 18.3243609,-2 16.9999992,-2 C15.6720044,-2 14.5679374,-1.04823483 14.3422098,0.221239018 C13.7357809,-0.909605292 12.3882191,-1.47932406 11.1286763,-1.07007381 C9.86567824,-0.659700849 9.10975969,0.586657098 9.28736898,1.86375214 C8.36117068,0.975652134 6.9035105,0.850236879 5.83207944,1.62867711 C4.75770908,2.40925286 4.42393361,3.82820139 4.98749416,4.98790666 C3.83218923,4.42948438 2.40711657,4.76064915 1.62867634,5.83208021 C0.848100587,6.90645057 0.969140454,8.3590931 1.86348702,9.28788857 C0.592164773,9.11380627 -0.660824326,9.86913436 -1.07007457,11.1286771 C-1.48044753,12.3916752 -0.916440548,13.735817 0.221147165,14.3427857 C-1.04174653,14.5700838 -2.00000076,15.6756384 -2.00000076,17 C-2.00000076,18.3279948 -1.04823559,19.4320618 0.221238255,19.6577894 C-0.909606054,20.2642184 -1.47932482,21.6117801 -1.07007457,22.8713229 C-0.659701612,24.134321 0.586656335,24.8902395 1.86375137,24.7126303 C0.975651371,25.6388286 0.850236116,27.0964887 1.62867634,28.1679198 C2.4092521,29.2422902 3.82820063,29.5760656 4.98790589,29.0125051 C4.42948361,30.16781 4.76064839,31.5928827 5.83207944,32.3713229 C6.9064498,33.1518986 8.35909234,33.0308588 9.2878878,32.1365122 C9.11380551,33.4078345 9.8691336,34.6608236 11.1286763,35.0700738 C12.3916744,35.4804468 13.7358162,34.9164398 14.3427849,33.7788521 C14.570083,35.0417458 15.6756376,36 16.9999992,36 C18.327994,36 19.4320611,35.0482348 19.6577887,33.778761 C20.2642176,34.9096053 21.6117794,35.4793241 22.8713221,35.0700738 C24.1343202,34.6597008 24.8902388,33.4133429 24.7126295,32.1362479 C25.6388278,33.0243479 27.096488,33.1497631 28.167919,32.3713229 C29.2422894,31.5907471 29.5760649,30.1717986 29.0125043,29.0120933 C30.1678092,29.5705156 31.5928819,29.2393508 32.3713221,28.1679198 C33.1518979,27.0935494 33.030858,25.6409069 32.1365115,24.7121114 C33.4078337,24.8861937 34.6608228,24.1308656 35.070073,22.8713229 C35.480446,21.6083248 34.916439,20.264183 33.7788513,19.6572143 C35.041745,19.4299162 35.9999992,18.3243616 35.9999992,17 C35.9999992,15.6720052 35.0482341,14.5679382 33.7787602,14.3422106 C34.9096045,13.7357816 35.4793233,12.3882199 35.070073,11.1286771 C34.6597001,9.865679 33.4133421,9.10976045 32.1362471,9.28736975 C33.0243471,8.36117145 33.1497624,6.90351126 32.3713221,5.83208021 Z M17,31 C24.7319865,31 31,24.7319865 31,17 C31,9.2680135 24.7319865,3 17,3 C9.2680135,3 3,9.2680135 3,17 C3,24.7319865 9.2680135,31 17,31 Z" id="circle" fill="#2E0B0B"/></g></g></svg>
